G04 Layer_Color=128*
%FSAX25Y25*%
%MOIN*%
G70*
G01*
G75*
%ADD17R,0.04134X0.03937*%
%ADD19R,0.03740X0.03740*%
%ADD21R,0.03740X0.03740*%
%ADD28R,0.02756X0.05118*%
%ADD29R,0.05906X0.05906*%
%ADD30C,0.05906*%
%ADD31O,0.03347X0.00984*%
%ADD32O,0.00984X0.03347*%
%ADD33R,0.10236X0.10236*%
D17*
X0373373Y0378781D02*
D03*
X0379278D02*
D03*
X0373973Y0352981D02*
D03*
X0379878D02*
D03*
X0358478Y0342355D02*
D03*
X0352573D02*
D03*
X0358478Y0336481D02*
D03*
X0352573D02*
D03*
D19*
X0373974Y0346281D02*
D03*
X0380077D02*
D03*
X0352577Y0366481D02*
D03*
X0346475D02*
D03*
X0352577Y0371981D02*
D03*
X0346475D02*
D03*
D21*
X0367826Y0351230D02*
D03*
Y0357332D02*
D03*
D28*
X0372986Y0370906D02*
D03*
X0376726D02*
D03*
X0380466D02*
D03*
Y0361457D02*
D03*
X0372986D02*
D03*
D29*
X0387326Y0334581D02*
D03*
D30*
Y0324581D02*
D03*
D31*
X0351947Y0358915D02*
D03*
Y0356946D02*
D03*
Y0354978D02*
D03*
Y0353010D02*
D03*
Y0351041D02*
D03*
Y0349073D02*
D03*
X0336789D02*
D03*
Y0351041D02*
D03*
Y0353010D02*
D03*
Y0354978D02*
D03*
Y0356946D02*
D03*
Y0358915D02*
D03*
D32*
X0349289Y0346415D02*
D03*
X0347321D02*
D03*
X0345353D02*
D03*
X0343384D02*
D03*
X0341416D02*
D03*
X0339447D02*
D03*
Y0361573D02*
D03*
X0341416D02*
D03*
X0343384D02*
D03*
X0345353D02*
D03*
X0347321D02*
D03*
X0349289D02*
D03*
D33*
X0344368Y0353994D02*
D03*
M02*
