G04 Layer_Color=32768*
%FSAX25Y25*%
%MOIN*%
G70*
G01*
G75*
%ADD35C,0.00600*%
%ADD36C,0.00394*%
%ADD39C,0.00197*%
%ADD40C,0.01000*%
%ADD41C,0.00300*%
G36*
X0369842Y0341012D02*
X0370952D01*
Y0332512D01*
X0366102D01*
Y0328862D01*
X0362402D01*
Y0332512D01*
X0357552D01*
Y0341012D01*
X0358661D01*
Y0344662D01*
X0369842D01*
Y0341012D01*
D02*
G37*
D35*
X0358661Y0344662D02*
X0369842D01*
Y0341012D02*
Y0344662D01*
X0358661Y0341012D02*
Y0344662D01*
X0369842Y0341012D02*
X0370952D01*
X0357552D02*
X0358661D01*
X0357552Y0332512D02*
Y0341012D01*
Y0332512D02*
X0362402D01*
Y0328862D02*
Y0332512D01*
Y0328862D02*
X0366102D01*
Y0332512D01*
X0370952D01*
Y0341012D01*
D36*
X0370223Y0375828D02*
X0382428D01*
X0370223D02*
Y0381734D01*
X0382428D01*
Y0375828D02*
Y0381734D01*
X0370823Y0350028D02*
X0383028D01*
X0370823D02*
Y0355934D01*
X0383028D01*
Y0350028D02*
Y0355934D01*
X0375156Y0346281D02*
X0378896D01*
X0377026Y0344411D02*
Y0348151D01*
X0367826Y0352411D02*
Y0356151D01*
X0365956Y0354281D02*
X0369696D01*
X0368655Y0375433D02*
X0384797D01*
X0368655Y0356929D02*
X0384797D01*
X0368655D02*
Y0375433D01*
X0384797Y0356929D02*
Y0375433D01*
X0376726Y0364213D02*
Y0368150D01*
X0374757Y0366181D02*
X0378694D01*
X0349423Y0345308D02*
X0361628D01*
Y0339403D02*
Y0345308D01*
X0349423Y0339403D02*
X0361628D01*
X0349423D02*
Y0345308D01*
Y0339434D02*
X0361628D01*
Y0333528D02*
Y0339434D01*
X0349423Y0333528D02*
X0361628D01*
X0349423D02*
Y0339434D01*
X0342400Y0353994D02*
X0346337D01*
X0344368Y0352025D02*
Y0355962D01*
X0324990Y0363738D02*
X0327746D01*
X0324990Y0370825D02*
X0327746D01*
X0324990Y0363738D02*
Y0370825D01*
X0327746Y0363738D02*
Y0370825D01*
X0326368Y0366198D02*
Y0368364D01*
X0325285Y0367281D02*
X0327450D01*
X0346285Y0332481D02*
X0348450D01*
X0347368Y0331399D02*
Y0333564D01*
X0345990Y0336024D02*
X0348746D01*
X0345990Y0328938D02*
X0348746D01*
Y0336024D01*
X0345990Y0328938D02*
Y0336024D01*
X0316485Y0365981D02*
X0318651D01*
X0317568Y0364898D02*
Y0367064D01*
X0316190Y0369525D02*
X0318946D01*
X0316190Y0362438D02*
X0318946D01*
Y0369525D01*
X0316190Y0362438D02*
Y0369525D01*
X0312985Y0365981D02*
X0315150D01*
X0314068Y0364898D02*
Y0367064D01*
X0312690Y0362438D02*
X0315446D01*
X0312690Y0369525D02*
X0315446D01*
X0312690Y0362438D02*
Y0369525D01*
X0315446Y0362438D02*
Y0369525D01*
X0306267Y0363498D02*
Y0365663D01*
X0305184Y0364581D02*
X0307350D01*
X0309810Y0363203D02*
Y0365958D01*
X0302724Y0363203D02*
Y0365958D01*
Y0363203D02*
X0309810D01*
X0302724Y0365958D02*
X0309810D01*
X0306267Y0359998D02*
Y0362163D01*
X0305184Y0361081D02*
X0307350D01*
X0309810Y0359703D02*
Y0362458D01*
X0302724Y0359703D02*
Y0362458D01*
Y0359703D02*
X0309810D01*
X0302724Y0362458D02*
X0309810D01*
X0315885Y0324181D02*
X0318051D01*
X0316968Y0323098D02*
Y0325264D01*
X0315590Y0327725D02*
X0318346D01*
X0315590Y0320638D02*
X0318346D01*
Y0327725D01*
X0315590Y0320638D02*
Y0327725D01*
X0312868Y0322410D02*
Y0325953D01*
X0311096Y0324181D02*
X0314639D01*
X0310899Y0319555D02*
Y0328807D01*
X0314836Y0319555D02*
Y0328807D01*
X0310899Y0319555D02*
X0314836D01*
X0310899Y0328807D02*
X0314836D01*
X0357823Y0345028D02*
X0370028D01*
Y0350934D01*
X0357823D02*
X0370028D01*
X0357823Y0345028D02*
Y0350934D01*
Y0328334D02*
X0370028D01*
X0357823Y0322428D02*
Y0328334D01*
Y0322428D02*
X0370028D01*
Y0328334D01*
X0345623Y0337228D02*
X0357828D01*
Y0343134D01*
X0345623D02*
X0357828D01*
X0345623Y0337228D02*
Y0343134D01*
X0384956Y0378181D02*
X0388696D01*
X0386826Y0376311D02*
Y0380051D01*
X0384956Y0371081D02*
X0388696D01*
X0386826Y0369211D02*
Y0372951D01*
X0365656Y0314281D02*
X0369396D01*
X0367526Y0312411D02*
Y0316151D01*
X0338823Y0364728D02*
X0351028D01*
Y0370634D01*
X0338823D02*
X0351028D01*
X0338823Y0364728D02*
Y0370634D01*
X0359226Y0315411D02*
Y0319151D01*
X0357356Y0317281D02*
X0361096D01*
X0306267Y0354398D02*
Y0356563D01*
X0305185Y0355481D02*
X0307350D01*
X0309811Y0354103D02*
Y0356859D01*
X0302724Y0354103D02*
Y0356859D01*
Y0354103D02*
X0309811D01*
X0302724Y0356859D02*
X0309811D01*
X0346285Y0324781D02*
X0348450D01*
X0347368Y0323698D02*
Y0325864D01*
X0345990Y0328325D02*
X0348746D01*
X0345990Y0321238D02*
X0348746D01*
Y0328325D01*
X0345990Y0321238D02*
Y0328325D01*
X0322568Y0320299D02*
Y0322464D01*
X0321485Y0321381D02*
X0323651D01*
X0319025Y0320003D02*
Y0322759D01*
X0326111Y0320003D02*
Y0322759D01*
X0319025D02*
X0326111D01*
X0319025Y0320003D02*
X0326111D01*
X0333885Y0315781D02*
X0336051D01*
X0334968Y0314699D02*
Y0316864D01*
X0333590Y0319324D02*
X0336346D01*
X0333590Y0312238D02*
X0336346D01*
Y0319324D01*
X0333590Y0312238D02*
Y0319324D01*
X0324368Y0360598D02*
Y0362764D01*
X0323285Y0361681D02*
X0325450D01*
X0320825Y0360303D02*
Y0363059D01*
X0327911Y0360303D02*
Y0363059D01*
X0320825D02*
X0327911D01*
X0320825Y0360303D02*
X0327911D01*
X0310195Y0331008D02*
X0338541D01*
X0310195Y0359354D02*
X0338541D01*
X0310195Y0331008D02*
Y0359354D01*
X0338541Y0331008D02*
Y0359354D01*
X0324368Y0343213D02*
Y0347150D01*
X0322399Y0345181D02*
X0326336D01*
X0306267Y0377498D02*
Y0379663D01*
X0305184Y0378581D02*
X0307350D01*
X0302724Y0377203D02*
Y0379959D01*
X0309810Y0377203D02*
Y0379959D01*
X0302724D02*
X0309810D01*
X0302724Y0377203D02*
X0309810D01*
X0339385Y0333981D02*
X0341550D01*
X0340468Y0332898D02*
Y0335064D01*
X0339090Y0337525D02*
X0341846D01*
X0339090Y0330438D02*
X0341846D01*
Y0337525D01*
X0339090Y0330438D02*
Y0337525D01*
X0301468Y0317109D02*
Y0320653D01*
X0299696Y0318881D02*
X0303239Y0318881D01*
X0303436Y0314255D02*
Y0323507D01*
X0299499Y0314255D02*
X0299499Y0323507D01*
X0303436Y0323507D01*
X0299499Y0314255D02*
X0303436Y0314255D01*
X0305585Y0323881D02*
X0307751Y0323881D01*
X0306668Y0322798D02*
X0306668Y0324964D01*
X0308046Y0320338D02*
Y0327425D01*
X0305290Y0327425D02*
X0305290Y0320338D01*
X0305290Y0327425D02*
X0308046Y0327425D01*
X0305290Y0320338D02*
X0308046Y0320338D01*
X0308836Y0328455D02*
Y0337707D01*
X0304899Y0328455D02*
Y0337707D01*
X0308836Y0337707D01*
X0304899Y0328455D02*
X0308836Y0328455D01*
X0306868Y0331310D02*
X0306868Y0334853D01*
X0305096Y0333081D02*
X0308640Y0333081D01*
X0302724Y0353059D02*
X0309811D01*
X0302724Y0350303D02*
X0309811D01*
X0302724D02*
Y0353059D01*
X0309811Y0350303D02*
Y0353059D01*
X0305185Y0351681D02*
X0307350D01*
X0306267Y0350598D02*
Y0352764D01*
X0349526Y0364611D02*
Y0368351D01*
X0347656Y0366481D02*
X0351396D01*
X0349526Y0370111D02*
Y0373851D01*
X0347656Y0371981D02*
X0351396D01*
D39*
X0371120Y0343525D02*
Y0349037D01*
X0382931Y0343525D02*
Y0349037D01*
X0371120Y0343525D02*
X0382931D01*
X0371120Y0349037D02*
X0382931D01*
X0365070Y0348376D02*
X0370582D01*
X0365070Y0360187D02*
X0370582D01*
Y0348376D02*
Y0360187D01*
X0365070Y0348376D02*
Y0360187D01*
X0354604Y0343758D02*
Y0364230D01*
X0334132Y0343758D02*
Y0364230D01*
X0354604D01*
X0334132Y0343758D02*
X0354604D01*
X0380920Y0375425D02*
Y0380937D01*
X0392731Y0375425D02*
Y0380937D01*
X0380920D02*
X0392731D01*
X0380920Y0375425D02*
X0392731D01*
X0380920Y0368325D02*
Y0373837D01*
X0392731Y0368325D02*
Y0373837D01*
X0380920D02*
X0392731D01*
X0380920Y0368325D02*
X0392731D01*
X0361620Y0311525D02*
Y0317037D01*
X0373431Y0311525D02*
Y0317037D01*
X0361620D02*
X0373431D01*
X0361620Y0311525D02*
X0373431D01*
X0356470Y0323187D02*
X0361982D01*
X0356470Y0311376D02*
X0361982D01*
Y0323187D01*
X0356470Y0311376D02*
Y0323187D01*
X0343620Y0369237D02*
X0355431D01*
X0343620Y0363725D02*
X0355431D01*
Y0369237D01*
X0343620Y0363725D02*
Y0369237D01*
Y0374737D02*
X0355431D01*
X0343620Y0369225D02*
X0355431D01*
Y0374737D01*
X0343620Y0369225D02*
Y0374737D01*
D40*
X0376326Y0378781D02*
D03*
X0376926Y0352981D02*
D03*
X0355526Y0342355D02*
D03*
Y0336481D02*
D03*
X0363926Y0347981D02*
D03*
Y0325381D02*
D03*
X0373026Y0364081D02*
D03*
X0351726Y0340181D02*
D03*
X0344926Y0367681D02*
D03*
X0373026Y0378581D02*
D03*
Y0371481D02*
D03*
D41*
X0366923Y0361424D02*
X0379128D01*
X0366923D02*
Y0366739D01*
X0379128D01*
Y0361424D02*
Y0366739D01*
X0366923Y0375924D02*
X0379128D01*
X0366923D02*
Y0381239D01*
X0379128D01*
Y0375924D02*
Y0381239D01*
X0366923Y0368824D02*
X0379128D01*
X0366923D02*
Y0374139D01*
X0379128D01*
Y0368824D02*
Y0374139D01*
M02*
